<svg xmlns="http://www.w3.org/2000/svg" width="16" height="12" viewBox="0 0 16 12" fill="none"><path fill-rule="evenodd" clip-rule="evenodd" d="M4.4 0.149298C3.53793 0.414396 2.64093 0.798974 2.44333 0.988291C1.99867 1.4142 1.53933 2.284 0.843067 4.01865C0.2292 5.54811 0 6.79512 0 8.60616C0 9.60489 0.0704667 9.89896 0.3954 10.2558C0.704333 10.595 2.31427 11.5367 3.04073 11.803C3.95327 12.1375 4.21227 12.0672 4.60193 11.3789C4.91827 10.8202 4.8726 10.6954 4.23333 10.3708C3.7728 10.137 3.64273 9.97826 3.699 9.7187C3.72373 9.60475 3.7724 9.51155 3.80727 9.51155C3.84207 9.51155 4.01967 9.63089 4.2018 9.77678C4.57407 10.0749 5.05727 10.2771 5.79773 10.4448C6.52273 10.6088 9.47727 10.6088 10.2023 10.4448C10.9427 10.2771 11.4259 10.0749 11.7982 9.77678C11.9803 9.63089 12.1579 9.51155 12.1927 9.51155C12.2276 9.51155 12.2763 9.60475 12.301 9.7187C12.3573 9.97826 12.2272 10.137 11.7667 10.3708C11.1149 10.7018 11.0654 10.8583 11.4302 11.4361C11.8475 12.0969 12.1007 12.1441 13.1065 11.7483C13.8253 11.4655 15.3072 10.5792 15.6046 10.2544C15.9294 9.89964 16 9.60523 16 8.60616C16 6.80187 15.776 5.58141 15.1609 4.03526C14.4733 2.30649 14.0057 1.41826 13.5567 0.988291C13.3584 0.798501 12.1027 0.274046 11.4124 0.0928339C10.6454 -0.108506 10.2641 0.0102989 10.0365 0.521448C9.95087 0.713872 9.87973 0.792355 9.81407 0.766892C9.761 0.746225 9.33113 0.678414 8.8588 0.616141C8.0554 0.510304 7.9446 0.510304 7.1412 0.616141C6.66887 0.678414 6.239 0.746225 6.18593 0.766892C6.12027 0.792355 6.04913 0.713872 5.96347 0.521448C5.72107 -0.0231338 5.29247 -0.125188 4.4 0.149298ZM5.86287 5.25451C7.20153 5.9464 6.7526 8.16073 5.27367 8.16073C4.85747 8.16073 4.6798 8.09251 4.3636 7.81127C4.02553 7.51051 3.8696 7.14113 3.8696 6.64106C3.8696 6.00543 4.1598 5.51144 4.7 5.22736C4.98227 5.07897 5.5488 5.09221 5.86287 5.25451ZM11.305 5.22966C12.2451 5.68157 12.4281 7.10702 11.6364 7.81127C11.3202 8.09251 11.1425 8.16073 10.7263 8.16073C9.95087 8.16073 9.33333 7.48701 9.33333 6.64106C9.33333 6.06271 9.64753 5.51225 10.1228 5.25789C10.4265 5.09539 10.9973 5.08174 11.305 5.22966Z" fill="#002F2B"></path></svg>