<svg xmlns="http://www.w3.org/2000/svg" width="14" height="14" viewBox="0 0 14 14" fill="none"><path fill-rule="evenodd" clip-rule="evenodd" d="M1.35522 0.00658239C0.794157 0.124365 0.374367 0.434742 0.167864 0.884476C-0.00569759 1.26248 -0.0455199 1.66815 0.0523589 2.06151C0.191641 2.62141 0.606325 3.04231 1.17806 3.20409C1.44114 3.27852 1.91869 3.27803 2.1888 3.20307C2.76664 3.04267 3.19956 2.6045 3.33701 2.04088C3.38107 1.86028 3.38663 1.46162 3.34786 1.26398C3.33274 1.18693 3.27196 1.01813 3.21276 0.888883C3.03054 0.490933 2.72708 0.223884 2.27907 0.0671803C2.15338 0.0232156 2.04893 0.0100467 1.76852 0.00286357C1.57464 -0.00210347 1.38865 -0.000447889 1.35522 0.00658239ZM10.0223 4.34972C9.18079 4.46174 8.46863 4.9197 7.96443 5.67312L7.8586 5.83125L7.84644 5.18418L7.83429 4.53714L6.33912 4.53059L4.84395 4.52405L4.83867 9.26202L4.8334 14H6.33992H7.84644V11.2093C7.84644 9.30479 7.85495 8.36049 7.87323 8.23547C7.92259 7.89792 8.1482 7.48352 8.42341 7.22492C8.58221 7.07568 8.93332 6.88668 9.13008 6.8445C9.20094 6.82932 9.35742 6.81689 9.47781 6.81689C10.1772 6.81689 10.6465 7.19214 10.8588 7.92118C10.9766 8.32567 10.9827 8.49129 10.9827 11.3395V14H12.4913H14L13.9908 10.9497C13.9808 7.67782 13.9845 7.78082 13.8549 7.15844C13.6621 6.23317 13.2233 5.4701 12.6001 4.97646C12.3558 4.78292 11.8932 4.54662 11.5904 4.46062C11.1402 4.33275 10.4935 4.287 10.0223 4.34972ZM0.180166 4.54139C0.171243 4.55072 0.163949 6.68272 0.163949 9.27919V14H1.67127H3.1786V9.2622V4.5244H1.68749C0.86736 4.5244 0.189064 4.53205 0.180166 4.54139Z" fill="#002F2B"></path></svg>